<?xml version="1.0" standalone="no"?>
<!DOCTYPE svg PUBLIC "-//W3C//DTD SVG 20010904//EN"
 "http://www.w3.org/TR/2001/REC-SVG-20010904/DTD/svg10.dtd">
<svg version="1.0" xmlns="http://www.w3.org/2000/svg"
 width="700.000000pt" height="700.000000pt" viewBox="0 0 700.000000 700.000000"
 preserveAspectRatio="xMidYMid meet">
<metadata>
Created by potrace 1.11, written by Peter Selinger 2001-2013
</metadata>
<g transform="translate(0.000000,700.000000) scale(0.100000,-0.100000)"
fill="#000000" stroke="none">
<path d="M2226 6959 c-39 -4 -79 -12 -90 -17 -172 -79 -186 -87 -263 -156 -78
-70 -175 -225 -189 -303 -3 -21 -12 -44 -18 -52 -8 -10 -12 -267 -16 -895 l-5
-881 -83 -6 c-73 -6 -87 -10 -110 -33 l-27 -26 -3 -283 -4 -282 -95 -80 c-52
-44 -105 -89 -117 -100 -13 -11 -46 -40 -76 -65 -29 -25 -62 -53 -74 -64 -11
-10 -43 -37 -70 -60 -27 -22 -57 -48 -66 -56 -9 -8 -41 -36 -72 -62 l-56 -48
-381 0 -381 0 0 -110 0 -110 399 0 c335 0 404 2 435 15 31 13 139 100 302 244
22 20 62 54 88 76 27 22 114 96 195 165 80 69 158 133 173 142 76 49 217 75
246 46 7 -7 12 -25 12 -41 0 -24 -35 -65 -225 -255 -244 -246 -252 -258 -221
-324 33 -70 13 -68 719 -68 479 0 636 -3 645 -12 16 -16 16 -80 0 -96 -9 -9
-125 -12 -462 -12 -390 0 -456 -2 -493 -16 -75 -29 -95 -121 -37 -175 l26 -24
650 -5 c628 -5 650 -6 664 -24 19 -27 18 -70 -4 -89 -17 -15 -76 -17 -646 -17
-566 0 -631 -2 -663 -17 -66 -31 -80 -124 -26 -175 l25 -23 531 -5 c293 -3
537 -8 544 -13 21 -13 26 -66 9 -92 l-16 -24 -534 -3 -534 -3 -25 -27 c-46
-49 -43 -117 6 -163 20 -19 37 -20 334 -23 174 -2 313 -7 313 -12 0 -17 -24
-23 -144 -37 -118 -13 -224 -26 -476 -59 -180 -24 -239 -21 -325 16 -11 5 -36
12 -55 16 -19 3 -41 10 -50 14 -8 4 -53 18 -100 30 -47 12 -105 28 -130 36
-25 7 -79 23 -120 35 -41 11 -95 28 -120 37 -39 15 -107 17 -477 20 l-433 3 0
-111 0 -110 408 0 c381 0 413 -1 478 -20 38 -11 92 -27 119 -35 28 -8 81 -23
119 -35 38 -11 77 -20 87 -20 10 0 20 -4 23 -9 3 -4 24 -11 46 -15 23 -3 49
-10 58 -15 9 -5 25 -12 34 -15 16 -5 18 -47 20 -580 3 -558 4 -575 23 -596 45
-51 30 -50 855 -50 l772 0 -9 -32 c-4 -18 -8 -69 -7 -114 0 -68 5 -90 28 -137
70 -138 164 -187 396 -207 69 -6 195 -17 280 -24 297 -26 416 -36 565 -51 212
-21 359 -34 515 -45 74 -6 158 -14 185 -19 101 -20 346 -34 570 -34 226 0 324
9 530 47 101 18 219 40 365 67 63 12 149 27 190 33 41 7 82 15 90 19 8 3 47
10 85 16 140 20 138 20 130 55 -4 17 -12 61 -18 98 -7 37 -15 69 -17 72 -3 3
-57 -4 -120 -16 -63 -11 -149 -26 -190 -32 -41 -7 -82 -15 -90 -19 -8 -3 -46
-10 -85 -16 -72 -10 -164 -27 -345 -61 -343 -64 -587 -69 -1040 -20 -52 6
-153 15 -225 20 -71 5 -170 14 -220 20 -49 5 -146 15 -215 21 -69 6 -192 17
-275 25 -82 7 -226 20 -320 28 -481 43 -471 42 -503 65 -80 57 -81 150 -3 218
l26 22 805 1 c868 0 881 1 953 52 88 63 120 125 121 233 1 101 -7 117 -168
329 -165 216 -166 218 -166 293 0 74 26 113 90 132 79 24 83 20 380 -274 151
-151 288 -279 303 -284 19 -7 244 -11 668 -11 l639 0 0 110 0 110 -612 0 -613
0 -255 254 -255 255 -5 1335 -5 1336 -27 26 c-23 23 -37 27 -110 33 l-83 6 -3
177 -2 177 102 4 c117 4 226 23 246 43 7 8 18 14 23 14 21 0 98 68 131 115 54
78 71 136 70 235 0 74 -5 96 -30 151 -16 35 -39 75 -50 87 -12 13 -22 27 -24
31 -5 12 -75 62 -115 82 -21 11 -58 22 -83 25 -25 3 -60 10 -77 16 -32 9 -33
9 -16 36 10 15 20 29 24 32 14 11 41 128 41 180 1 179 -161 341 -342 342 -51
1 -169 -26 -180 -41 -13 -17 -58 -39 -67 -33 -5 4 -13 28 -16 53 -13 93 -104
225 -198 284 -79 50 -145 68 -252 68 -59 -1 -103 -5 -110 -12 -6 -6 -18 -11
-27 -11 -51 0 -186 -104 -236 -182 -31 -49 -64 -136 -64 -170 0 -38 -15 -43
-52 -15 -126 94 -329 74 -446 -44 -47 -46 -78 -102 -88 -156 -4 -21 -11 -46
-15 -55 -14 -27 19 -167 52 -216 16 -24 29 -45 29 -47 0 -7 -65 -25 -94 -25
-17 0 -44 -7 -60 -15 -16 -9 -33 -12 -37 -8 -4 4 -9 150 -11 324 -2 207 -7
321 -15 330 -6 8 -13 30 -17 51 -14 79 -110 233 -189 304 -71 63 -81 70 -163
109 -44 20 -87 41 -96 46 -20 10 -177 29 -223 28 -16 -1 -61 -5 -99 -10z m300
-245 c144 -73 223 -164 268 -311 14 -44 16 -119 16 -505 l0 -453 -46 -20 c-84
-36 -157 -137 -179 -245 l-11 -55 -232 -3 -232 -2 0 -110 0 -110 230 0 230 0
0 98 c0 66 3 92 10 82 5 -8 10 -33 10 -55 1 -80 63 -230 131 -316 16 -20 29
-40 29 -43 0 -3 -198 -6 -440 -6 l-440 0 3 858 c3 937 0 895 63 1002 60 101
141 167 259 212 40 15 72 18 160 15 100 -2 116 -5 171 -33z m1767 -213 c23
-11 56 -34 74 -53 54 -56 63 -91 63 -252 0 -173 12 -215 67 -241 65 -31 98
-12 242 138 62 65 115 97 159 97 59 0 130 -72 131 -133 1 -47 -33 -97 -138
-201 -112 -111 -125 -138 -96 -199 26 -55 48 -61 265 -67 185 -5 197 -6 226
-28 106 -80 95 -251 -19 -306 -28 -13 -68 -16 -201 -16 -229 0 -272 -19 -283
-125 -3 -30 -8 -55 -10 -55 -2 0 -27 17 -56 39 -60 44 -94 63 -169 90 -55 21
-262 56 -277 47 -4 -3 -39 -10 -77 -16 -69 -11 -132 -31 -189 -60 -56 -29
-140 -87 -164 -114 -14 -14 -29 -26 -35 -26 -6 0 -20 19 -30 42 -68 157 -210
289 -391 362 -49 19 -211 46 -282 46 -29 0 -53 4 -53 9 0 28 23 62 57 85 37
26 41 26 219 26 210 0 241 7 269 66 29 61 16 90 -88 195 -129 131 -137 143
-137 206 0 46 4 56 34 87 19 19 49 37 65 41 61 13 90 -3 200 -110 151 -145
161 -150 226 -119 55 26 65 61 65 234 0 121 3 159 17 188 21 46 76 102 122
124 49 24 141 23 194 -1z m-1076 -1262 c91 -12 177 -50 244 -109 53 -45 114
-132 125 -176 4 -16 11 -35 17 -42 6 -8 13 -50 15 -95 4 -74 2 -85 -19 -111
-36 -45 -75 -56 -203 -56 -223 0 -334 30 -437 120 -95 81 -159 216 -159 334 0
72 21 108 74 132 38 16 232 18 343 3z m1238 -253 c131 -41 259 -170 299 -303
l7 -23 -446 0 -447 0 6 28 c23 92 123 214 216 262 118 61 247 73 365 36z
m-2575 -675 l0 -118 -92 -7 c-50 -4 -99 -11 -110 -17 -10 -5 -23 -7 -28 -4 -6
4 -10 62 -10 136 l0 129 120 0 120 0 0 -119z m460 -346 l0 -465 -120 0 -120 0
0 465 0 465 120 0 120 0 0 -465z m2670 -755 l0 -1219 -57 -16 c-89 -25 -135
-50 -184 -102 -85 -92 -120 -212 -94 -324 21 -93 33 -114 192 -323 150 -198
164 -226 126 -268 -15 -17 -66 -18 -1220 -18 l-1203 0 0 536 0 536 45 50 c25
28 48 62 51 77 3 14 8 40 12 56 l8 30 122 6 c127 7 165 18 230 66 64 48 117
173 105 249 -4 27 -2 35 13 40 89 28 166 94 200 170 36 82 18 202 -43 282 -46
61 -160 112 -250 112 l-39 0 -1 65 c-1 104 -59 199 -149 244 -41 21 -68 26
-174 30 l-125 6 -3 468 -2 467 1220 0 1220 0 0 -1220z m-3130 320 c0 -28 -3
-30 -35 -30 -19 0 -35 2 -35 5 0 9 52 55 61 55 5 0 9 -13 9 -30z m460 -1985
c0 -234 -3 -425 -7 -425 -4 0 -58 51 -120 112 l-113 113 0 293 0 292 26 10
c14 6 46 10 72 11 26 1 58 5 72 9 14 4 35 8 48 9 l22 1 0 -425z m-460 79 l0
-286 -110 -109 c-61 -60 -115 -109 -120 -109 -6 0 -10 143 -10 379 l0 380 48
6 c26 3 65 9 87 14 22 5 55 9 73 10 l32 1 0 -286z m207 -579 c46 -46 82 -89
78 -95 -7 -11 -337 -15 -349 -3 -7 7 163 183 177 183 5 0 47 -38 94 -85z"/>
<path d="M2110 5935 l0 -115 230 0 230 0 0 115 0 115 -230 0 -230 0 0 -115z"/>
<path d="M2110 5470 l0 -110 230 0 230 0 0 110 0 110 -230 0 -230 0 0 -110z"/>
<path d="M3970 5907 c0 -31 -32 -95 -67 -133 -33 -37 -102 -74 -138 -74 l-25
0 0 -110 0 -111 53 7 c103 13 192 60 268 140 70 75 111 160 123 257 l6 47
-110 0 c-108 0 -110 0 -110 -23z"/>
<path d="M4326 5763 c23 -204 192 -371 402 -396 l42 -5 0 109 c0 101 -1 109
-19 109 -33 0 -106 36 -139 70 -42 41 -72 101 -72 140 l0 30 -110 0 -110 0 6
-57z"/>
</g>
</svg>
