<svg height="512" viewBox="0 0 60 60" width="512" xmlns="http://www.w3.org/2000/svg"><g id="Page-1" fill="none" fill-rule="evenodd"><g id="045---Meat-Diet" fill="rgb(0,0,0)" fill-rule="nonzero" transform="translate(-1)"><path id="Shape" d="m38.571 27.128c-2.0455223-2.5190614-4.8601002-4.2985012-8.013-5.066-.8532891-.1797006-1.7420483.0368816-2.417.589-.7257534.5885926-1.1453931 1.4745804-1.141 2.409v2.592c-6.393 1.077-11.646 3.422-14.794 6.515-.5271125-.8548858-1.1494173-1.647276-1.855-2.362-1.24916616-1.2619739-2.74771539-2.2496541-4.4-2.9-1.01663371-.399989-2.17045782-.2140739-3.01.485-.84496372.6813818-1.24240581 1.7751177-1.032 2.84.16679936.9137625.24748638 1.841161.241 2.77.05984738 1.5693376-.21667158 3.1333233-.811 4.587-.45943876.8898637-.45943876 1.9471363 0 2.837.59313892 1.4501693.86964224 3.0103162.811 4.576.00638204.9295421-.07464113 1.8576257-.242 2.772-.20588758 1.0605941.19025035 2.1482427 1.03 2.828.53922856.4470051 1.21758517.6917511 1.918.692.37387402.000301.74441598-.0702785 1.092-.208 1.65244765-.6500318 3.15105819-1.6377524 4.4-2.9.7055334-.7137812 1.3275361-1.505543 1.854-2.36 3.149 3.093 8.4 5.438 14.8 6.515v2.601c-.0043931.9344196.4152466 1.8204074 1.141 2.409.5143701.4187435 1.156738.6485135 1.82.651.1999886-.0001757.3994091-.0212908.595-.063 2.2911665-.5113348 4.4103079-1.6088088 6.15-3.185.6546627-.5812963 1.2656469-1.2099951 1.828-1.881 12.847-.902 22.464-6.671 22.464-13.871s-9.6-12.961-22.429-13.872zm-9.571-2.068c-.0019406-.330632.1449449-.6445999.4-.855.2072379-.1718472.481308-.2402727.745-.186 2.0779229.4826582 3.9878974 1.5150116 5.53 2.989-.225 0-.448-.009-.674-.009-2.0055468-.0009775-4.0092798.1205823-6 .364zm-20.07 23.724c-1.05591463 1.0645705-2.32219231 1.8972894-3.718 2.445-.33840984.1335962-.72290495.06977-1-.166-.27375331-.217822-.40459731-.5691766-.34-.913.19269411-1.0387612.28578304-2.0935459.278-3.15.07186093-1.8847955-.27940606-3.7617504-1.028-5.493-.16481941-.3124439-.16705836-.6856008-.006-1 .7527783-1.735053 1.10614557-3.6170584 1.034-5.507.00787326-1.0554187-.08487959-2.1091848-.277-3.147-.06664947-.3451628.06444026-.6987195.34-.917.27621002-.237669.66181418-.3016793 1-.166 1.3952692.5467915 2.66120619 1.3784886 3.717 2.442.74887611.7563143 1.3859673 1.6156466 1.892 2.552-.3007353.4113145-.5714365.843768-.81 1.294-.87984142-.4487238-1.80869782-.7940248-2.768-1.029-.53571619-.1347574-1.07924247.1902838-1.21399994.726-.13475748.5357162.19028376 1.0792425.72599994 1.214.87702838.2089044 1.72361312.5295244 2.519.954-.36665153 1.3593773-.36665153 2.7916227 0 4.151-.79533776.4248215-1.64192432.7457783-2.519.955-.49198353.1211091-.8156432.5910372-.75339505 1.0938696.06224814.5028323.49073059.8796489.99739505.8771304.08257217-.0001721.16482587-.010244.245-.03.95939507-.2351309 1.8882715-.5807749 2.768-1.03.2382062.4523517.5089168.8868255.81 1.3-.5068545.9336778-1.14427145 1.7903015-1.893 2.544zm2.07-7.784c0-6.505 10.991-12 24-12 4.1435833-.0207014 8.2679109.5648305 12.242 1.738-1.5894321 3.1808764-2.3600416 6.7080817-2.242 10.262-.11783 3.553899.6527683 7.0810529 2.242 10.262-3.9740891 1.1731695-8.0984167 1.7587014-12.242 1.738-13.009 0-24-5.5-24-12zm24.39 14.25c-1.4833337 1.3496195-3.2916597 2.2909965-5.248 2.732-.2621546.056218-.5356132-.0108567-.742-.182-.2550551-.2104001-.4019406-.524368-.4-.855l-.000019-2.3c1.9909234.2404095 3.9946558.3589637 6.000019.355.222 0 .44-.006.66-.009-.091.083-.178.177-.27.258zm13.794-4.65c-1.337-2-2.184-5.639-2.184-9.6s.847-7.6 2.184-9.605c5.91 2.205 9.816 5.727 9.816 9.605s-3.906 7.394-9.816 9.6z"/><path id="Shape" d="m54.707 36.292c-.3904999-.3903819-1.0235001-.3903819-1.414 0l-1.293 1.293-1.293-1.293c-.3923789-.3789722-1.0160848-.3735524-1.4018186.0121814s-.3911536 1.0094397-.0121814 1.4018186l1.293 1.294-1.293 1.293c-.2599566.2510745-.3642126.6228779-.2726972.9725073.0915155.3496295.3645604.6226744.7141899.7141899.3496294.0915154.7214328-.0127406.9725073-.2726972l1.293-1.294 1.293 1.293c.3923789.3789722 1.0160848.3735524 1.4018186-.0121814s.3911536-1.0094397.0121814-1.4018186l-1.293-1.292 1.293-1.293c.187777-.1875683.2932867-.4420908.2932867-.7075s-.1055097-.5199317-.2932867-.7075z"/><path id="Shape" d="m40 39c.5522847 0 1-.4477153 1-1s-.4477153-1-1-1c-1.1045695 0-2-.8954305-2-2s.8954305-2 2-2c.5522847 0 1-.4477153 1-1s-.4477153-1-1-1c-2.209139 0-4 1.790861-4 4s1.790861 4 4 4z"/><path id="Shape" d="m34 43c-1.1045695 0-2-.8954305-2-2s.8954305-2 2-2c.5522847 0 1-.4477153 1-1s-.4477153-1-1-1c-2.209139 0-4 1.790861-4 4s1.790861 4 4 4c.5522847 0 1-.4477153 1-1s-.4477153-1-1-1z"/><path id="Shape" d="m22 39c.5522847 0 1-.4477153 1-1s-.4477153-1-1-1c-2.209139 0-4 1.790861-4 4s1.790861 4 4 4c.5522847 0 1-.4477153 1-1s-.4477153-1-1-1c-1.1045695 0-2-.8954305-2-2s.8954305-2 2-2z"/><path id="Shape" d="m40 51c.5522847 0 1-.4477153 1-1s-.4477153-1-1-1c-1.1045695 0-2-.8954305-2-2s.8954305-2 2-2c.5522847 0 1-.4477153 1-1s-.4477153-1-1-1c-2.209139 0-4 1.790861-4 4s1.790861 4 4 4z"/><path id="Shape" d="m28 33c.5522847 0 1-.4477153 1-1s-.4477153-1-1-1c-2.209139 0-4 1.790861-4 4s1.790861 4 4 4c.5522847 0 1-.4477153 1-1s-.4477153-1-1-1c-1.1045695 0-2-.8954305-2-2s.8954305-2 2-2z"/><path id="Shape" d="m28 45c.5522847 0 1-.4477153 1-1s-.4477153-1-1-1c-2.209139 0-4 1.790861-4 4s1.790861 4 4 4c.5522847 0 1-.4477153 1-1s-.4477153-1-1-1c-1.1045695 0-2-.8954305-2-2s.8954305-2 2-2z"/><path id="Shape" d="m56.5 4c-1.4533736.00302748-2.8160965.70672866-3.66 1.89-.570027.73005599-1.4553447 1.14278285-2.381 1.11h-5.469c-6.3681176-.12125935-12.6657128-1.3576282-18.607-3.653-.67-.243-1.333-.5-1.995-.755-2.0782474-.87971979-4.2384359-1.55165934-6.449-2.006-4.977-.855-10.139-1.339-13.807 2.807-2.0223319 2.41822495-3.12085652 5.47566701-3.1 8.628-.01346871 3.1377529 1.0847936 6.1788767 3.1 8.584 2.11154307 2.3270819 5.16311634 3.5730797 8.3 3.389 1.8486538-.0390303 3.6907771-.2330437 5.507-.58 2.2094808-.4547722 4.368632-1.1267016 6.446-2.006.662-.256 1.325-.512 1.995-.755 5.9422309-2.2957155 12.2408715-3.5320903 18.61-3.653h5.469c.9254083-.0329528 1.8104969.3798407 2.38 1.11.8444435 1.1831715 2.2073944 1.8867982 3.661 1.89 1.7346718-.0227277 3.3071161-1.0250641 4.06-2.588.2892277-.5959088.4396612-1.2496105.44-1.912-.0026958-1.0172845-.3487072-2.0038749-.982-2.8-.337372-.4019197-.337372-.9880803 0-1.39.635072-.7990034.9811654-1.78935206.982-2.81-.029247-1.2441015-.5507005-2.42582309-1.45-3.286-.6038595-.56653001-1.3523217-.95546737-2.163-1.124-.291862-.05992067-.5890505-.09007507-.887-.09zm-30.8 14.772c-.684.249-1.36.509-2.036.77-1.9544572.8316566-3.9863356 1.468084-6.066 1.9-4.6.788-8.984 1.217-11.974-2.164-1.69334195-2.0382325-2.61395851-4.6081691-2.6-7.258-.02085774-2.66372618.89999073-5.24918536 2.6-7.3 2.993-3.38 7.376-2.952 11.976-2.163 2.0807534.43146518 4.1136709 1.06790336 6.069 1.9.676.261 1.352.521 2.036.77 5.9565342 2.28393858 12.2537982 3.55319388 18.63 3.755h.016c.5000059.92341642.725211 1.9706721.649 3.018.0744407 1.0455212-.1514258 2.0905438-.651 3.012h-.016c-6.3774999.2030714-12.6758146 1.4740242-18.633 3.76zm30.8-.772c-.8078332-.0016051-1.5651037-.3934637-2.033-1.052-.9450776-1.2559934-2.4365005-1.9808666-4.008-1.948h-3.9c.304717-.9703878.4535668-1.9829715.441-3 .0135372-1.0168684-.1342995-2.02944834-.438-3h3.9c1.5717405.03269433 3.0633917-.69210902 4.009-1.948.5950378-.83992063 1.6449567-1.22799096 2.6432217-.97698595.9982651.25100501 1.7397714 1.08951351 1.8667783 2.11098595.0154847.10391162.0218423.20897942.019.314.0018906.56607987-.1904849 1.11567357-.545 1.557-.9126361 1.1345823-.9126361 2.7514177 0 3.886.3545151.4413264.5468906.9909201.545 1.557.0013929.1203467-.0086522.2405536-.03.359-.1801318 1.2265346-1.2303157 2.1368357-2.47 2.141z"/><path id="Shape" d="m9.8 4.336c-1.03456931.30221131-1.9610437.89418333-2.67 1.706-1.36847705 1.67221298-2.11109891 3.76923567-2.1 5.93-.01569304.5516094.41840915 1.0116682.97 1.028h.029c.54153232.0002123.98483714-.43068 1-.972-.02291056-1.6909937.54071621-3.33770265 1.595-4.66.46393131-.53433797 1.07285182-.92268545 1.753-1.118.3520115-.09457909.624681-.37319645.7116432-.72716655.0869622-.35397011-.0255587-.7272198-.2936697-.97414852-.2681109-.24692873-.6493398-.32841998-.9949735-.21268493z"/><circle id="Oval" cx="14" cy="5" r="1"/></g></g></svg>