<svg height="480pt" viewBox="-16 0 480 480.00044" width="480pt" xmlns="http://www.w3.org/2000/svg"><path d="m367.839844 74.472656 15.214844-4.953125 15.625 48.003907-15.214844 4.949218zm0 0"/><path d="m344.390625 130.480469 15.214844-4.953125 15.628906 47.996094-15.214844 4.957031zm0 0"/><path d="m74.625 153.816406c-1.6875 12.222656 1.878906 24.589844 9.824219 34.03125l11.550781 14.488282v133.664062h16v-121.046875l11.558594 7.703125c2.691406 1.792969 6.191406 1.792969 8.882812 0l19.558594-13.054688 19.558594 13.039063c2.691406 1.792969 6.191406 1.792969 8.882812 0l19.558594-13.039063 19.558594 13.039063c2.691406 1.792969 6.191406 1.792969 8.882812 0l19.558594-13.039063 19.558594 13.039063c2.691406 1.792969 6.191406 1.792969 8.882812 0l19.558594-13.039063 16 10.664063v243.734375h-176v16h224c22.082031-.027344 39.972656-17.917969 40-40v-240c-.019531-1.757812-.625-3.460938-1.71875-4.839844l46.230469-123.078125c6.222656-16.535156 3.945312-35.066406-6.09375-49.601562-9.539063-14.101563-25.46875-22.5312502-42.488281-22.480469-21.695313.203125-41.019532 13.757812-48.59375 34.089844l-12.542969 33.390625-14.792969-14.792969v-28.6875c0-4.417969-3.582031-8-8-8h-88c-4.417969 0-8 3.582031-8 8v13.726562c-9.042969-8.195312-22.683594-8.660156-32.265625-1.09375v-12.632812c0-13.09375-10.613281-23.710938-23.710937-23.710938-13.09375 0-23.710938 10.617188-23.710938 23.710938v12.640625c-4.378906-3.628906-9.890625-5.613281-15.578125-5.601563-6.601563-.015624-12.929687 2.648438-17.535156 7.386719-9.488281 9.777344-9.546875 25.308594-.136719 35.160157l7.449219 7.6875c-2.710938 1.242187-5.171875 2.96875-7.261719 5.09375l-.050781.03125-.078125.082031c-1.863282 1.914062-3.40625 4.117187-4.5625 6.527343l-9.117188-16.839843-14.074218 7.617187 20.6875 38.183594c-.925782.527344-1.855469 1.039062-2.734376 1.640625-.328124.222656-.617187.480469-.9375.703125l-30.957031-28.527344-10.847656 11.765625 30.75 28.351563c-3.53125 5.402344-5.820313 11.519531-6.703125 17.914062zm168.933594 39.527344-19.558594 13.054688-19.558594-13.039063c-2.691406-1.792969-6.191406-1.792969-8.882812 0l-19.375 12.921875c-.046875-.800781-.183594-1.496094-.183594-2.265625-.050781-17.582031 12.640625-32.617187 29.980469-35.515625 17.34375-2.902344 34.234375 7.183594 39.90625 23.828125-.824219.214844-1.609375.554687-2.328125 1.015625zm20.441406 7.710938-.152344-.101563c-.960937-16.816406-10.019531-32.121094-24.300781-41.054687-14.277344-8.933594-32.003906-10.386719-47.546875-3.898438v-52h72zm120 238.945312c0 13.253906-10.746094 24-24 24h-32v-243.71875l16-10.679688 19.558594 13.039063c2.691406 1.792969 6.191406 1.792969 8.882812 0l11.558594-7.6875zm-21.6875-400.289062c5.214844-14.101563 18.582031-23.527344 33.617188-23.710938 11.757812-.023438 22.753906 5.808594 29.335937 15.550781 7.0625 10.230469 8.65625 23.273438 4.269531 34.90625l-49.535156 131.941407-12 8-19.558594-13.039063c-2.691406-1.792969-6.191406-1.792969-8.882812 0l-19.558594 13.039063-16.230469-10.820313zm-33.695312 44.21875-42.457032 113.015624-6.160156 4.109376v-101.742188l32-32zm-96.617188-51.929688h72v16h-72zm-4.6875 32h65.375l-24 24h-65.375zm-112.695312-14.351562c1.605468-1.65625 3.8125-2.59375 6.117187-2.59375 2.308594.003906 4.515625.9375 6.121094 2.59375l11.746093 12c2.28125 2.328124 5.746094 3.035156 8.757813 1.796874 3.011719-1.242187 4.972656-4.1875 4.953125-7.445312v-32c-.128906-2.839844 1.3125-5.519531 3.75-6.976562 2.441406-1.460938 5.484375-1.460938 7.921875 0 2.441406 1.457031 3.882813 4.136718 3.75 6.976562v32c.003906 3.246094 1.96875 6.167969 4.976563 7.394531 3.003906 1.230469 6.453124.519531 8.730468-1.792969l11.78125-12c3.375-3.324218 8.789063-3.324218 12.160156 0 3.476563 3.558594 3.476563 9.238282 0 12.796876l-23.566406 24 .238282.242187-3.710938 3.710937c-.644531.664063-1.164062 1.4375-1.542969 2.28125-.113281.246094-.175781.496094-.265625.75-.238281.683594-.382812 1.394532-.429687 2.113282 0 .175781-.097657.320312-.097657.496094v70.566406c-1.820312 1.742187-3.511718 3.613281-5.054687 5.601562l-15.113281-32.160156c-5.578125-11.097656-15.660156-19.261719-27.679688-22.398438-2.796875-.722656-5.664062-1.160156-8.550781-1.296874l-2.050781-2.402344c-1.597656-1.832032-2.804688-3.261719-3-3.460938-2.066406-2.164062-2.960938-5.195312-2.398438-8.136718.296875-1.671876 1.066406-3.21875 2.214844-4.464844l.144531-.136719.199219-.214844c2.898438-2.839843 7.386719-3.257812 10.761719-1.007812 3.394531 2.269531 7.949219 1.617187 10.574219-1.507813 2.625-3.128906 2.472656-7.726562-.351563-10.675781l-21.144531-21.824219c-3.433594-3.59375-3.40625-9.261718.058594-12.824218zm-24.136719 106.351562c1.042969-7.753906 5.335937-14.699219 11.808593-19.097656 6.417969-4.339844 14.390626-5.714844 21.894532-3.773438 7.5 1.945313 13.804687 7.019532 17.304687 13.933594l20.390625 43.433594c-.503906 1.871094-.902344 3.769531-1.191406 5.6875l-4.214844-2.816406c-2.6875-1.792969-6.191406-1.792969-8.878906 0l-19.59375 13.03125-17.742188-11.839844-1.714843-2.148438 20.625-15.945312-9.792969-12.65625-20.796875 16.085937-1.777344-2.214843c-5.089843-6-7.386719-13.882813-6.320312-21.679688zm0 0"/><path d="m17.082031 460.046875c6.078125 12.261719 18.601563 20 32.285157 19.953125 5.605468-.007812 11.128906-1.3125 16.144531-3.808594l6.488281-3.246094 6.496094 3.246094c5.011718 2.496094 10.535156 3.800782 16.136718 3.808594 13.6875.046875 26.207032-7.691406 32.289063-19.953125l2.789063-5.597656c9.367187-18.796875 14.257812-39.503907 14.289062-60.503907-.027344-23.15625-18.789062-41.917968-41.945312-41.945312-7.804688.023438-15.449219 2.238281-22.054688 6.398438v-6.398438c0-17.671875-14.328125-32-32-32v16c8.835938 0 16 7.164062 16 16v6.398438c-6.605469-4.160157-14.25-6.375-22.054688-6.398438-23.15625.027344-41.9179682 18.789062-41.945312 41.945312.0273438 21.003907 4.917969 41.71875 14.289062 60.519532zm24.863281-92.046875c6.882813-.019531 13.488282 2.71875 18.34375 7.601562l6.054688 6.054688c3.125 3.121094 8.1875 3.121094 11.3125 0l6.054688-6.054688c7.421874-7.421874 18.578124-9.640624 28.273437-5.625 9.695313 4.015626 16.015625 13.476563 16.015625 23.96875-.019531 18.523438-4.332031 36.789063-12.601562 53.367188l-2.789063 5.601562c-3.394531 6.816407-10.363281 11.113282-17.976563 11.085938-3.117187-.003906-6.191406-.730469-8.984374-2.121094l-10.070313-5.039062c-2.253906-1.125-4.902344-1.125-7.152344 0l-10.066406 5.039062c-2.792969 1.390625-5.871094 2.117188-8.992187 2.121094-7.617188.023438-14.589844-4.285156-17.976563-11.113281l-2.789063-5.597657c-8.265624-16.570312-12.578124-34.828124-12.601562-53.34375.019531-14.320312 11.625-25.925781 25.945312-25.945312zm0 0"/></svg>