<?xml version="1.0" encoding="iso-8859-1"?>
<!-- Generator: Adobe Illustrator 19.0.0, SVG Export Plug-In . SVG Version: 6.00 Build 0)  -->
<svg version="1.1" id="Capa_1" xmlns="http://www.w3.org/2000/svg" xmlns:xlink="http://www.w3.org/1999/xlink" x="0px" y="0px"
	 viewBox="0 0 512 512" style="enable-background:new 0 0 512 512;" xml:space="preserve">
<g>
	<g>
		<path d="M486.4,128h-1.463c2.768-7.836,1.562-16.527-3.236-23.313c-4.798-6.785-12.591-10.82-20.901-10.821h-9.996
			c2.768-7.836,1.562-16.527-3.236-23.313s-12.591-10.82-20.901-10.821H332.8c-20.516,0.009-40.644,5.588-58.237,16.142
			c-10.843,6.33-23.2,9.599-35.754,9.458h-25.475V68.267c-0.001-8.31-4.036-16.103-10.821-20.901s-15.477-6.005-23.313-3.236V25.6
			c0-14.138-11.461-25.6-25.6-25.6C139.461,0,128,11.461,128,25.6v1.463c-7.836-2.768-16.527-1.562-23.313,3.236
			S93.868,42.89,93.867,51.2v9.996c-7.836-2.768-16.527-1.562-23.313,3.236c-6.785,4.798-10.82,12.591-10.821,20.901V179.2
			c0.009,20.516,5.588,40.644,16.142,58.238c6.33,10.843,9.599,23.2,9.458,35.754v25.475H68.267
			c-8.31,0.001-16.103,4.036-20.901,10.821c-4.798,6.785-6.005,15.477-3.236,23.313H25.6C11.461,332.8,0,344.262,0,358.4
			S11.461,384,25.6,384h1.463c-2.768,7.836-1.562,16.527,3.236,23.313s12.591,10.82,20.901,10.821h9.996
			c-2.768,7.836-1.562,16.527,3.236,23.313c4.798,6.785,12.591,10.82,20.901,10.821H179.2c20.516-0.009,40.644-5.588,58.238-16.142
			c10.843-6.33,23.2-9.599,35.754-9.458h25.475v17.067c0.001,8.31,4.036,16.103,10.821,20.901
			c6.785,4.798,15.477,6.005,23.313,3.236V486.4c0,14.138,11.462,25.6,25.6,25.6s25.6-11.461,25.6-25.6v-1.463
			c7.836,2.768,16.527,1.562,23.313-3.236c6.785-4.798,10.82-12.591,10.821-20.901v-9.996c7.836,2.768,16.527,1.562,23.313-3.236
			c6.785-4.798,10.82-12.591,10.821-20.901V332.8c-0.009-20.516-5.588-40.644-16.142-58.237c-6.33-10.843-9.599-23.2-9.458-35.754
			v-25.475h17.067c8.31-0.001,16.103-4.036,20.901-10.821s6.005-15.477,3.236-23.313H486.4c14.138,0,25.6-11.461,25.6-25.6
			C512,139.461,500.539,128,486.4,128z M76.8,179.2V85.333c0-4.713,3.82-8.533,8.533-8.533s8.533,3.82,8.533,8.533v59.733
			c0,4.713,3.82,8.533,8.533,8.533s8.533-3.821,8.533-8.533V51.2c0-4.713,3.82-8.533,8.533-8.533S128,46.487,128,51.2v93.867
			c0,4.713,3.82,8.533,8.533,8.533s8.533-3.821,8.533-8.533V25.6c0-4.713,3.821-8.533,8.533-8.533c4.713,0,8.533,3.82,8.533,8.533
			v119.467c0,4.713,3.82,8.533,8.533,8.533s8.533-3.821,8.533-8.533v-76.8c0-4.713,3.82-8.533,8.533-8.533s8.533,3.82,8.533,8.533
			v128c0,4.713,3.82,8.533,8.533,8.533h16.531c-1.836,14.903-9.341,28.526-20.956,38.042c-7.941,6.524-12.573,16.24-12.642,26.517
			v29.308H102.4v-25.475c0.14-15.649-3.97-31.042-11.892-44.538C81.545,213.715,76.807,196.622,76.8,179.2z M238.359,204.8h4.282
			c5.219,0.076,10.136,2.464,13.421,6.521c12.855,15.352,31.212,25.058,51.138,27.039v4.282c-0.076,5.219-2.464,10.136-6.521,13.421
			c-15.352,12.855-25.058,31.212-27.039,51.138h-4.282c-5.219-0.076-10.136-2.464-13.421-6.521
			c-12.855-15.352-31.212-25.058-51.138-27.039v-4.282c0.076-5.219,2.464-10.136,6.521-13.421
			C226.673,243.082,236.379,224.725,238.359,204.8z M298.667,409.6h-25.475c-15.649-0.141-31.042,3.97-44.538,11.892
			c-14.939,8.963-32.032,13.701-49.454,13.708H85.333c-4.713,0-8.533-3.82-8.533-8.533s3.82-8.533,8.533-8.533h59.733
			c4.713,0,8.533-3.82,8.533-8.533s-3.821-8.533-8.533-8.533H51.2c-4.713,0-8.533-3.821-8.533-8.533c0-4.713,3.82-8.533,8.533-8.533
			h93.867c4.713,0,8.533-3.82,8.533-8.533s-3.821-8.533-8.533-8.533H25.6c-4.713,0-8.533-3.82-8.533-8.533s3.82-8.533,8.533-8.533
			h119.467c4.713,0,8.533-3.82,8.533-8.533s-3.821-8.533-8.533-8.533h-76.8c-4.713,0-8.533-3.82-8.533-8.533s3.82-8.533,8.533-8.533
			h128c4.713,0,8.533-3.82,8.533-8.533v-16.531c14.903,1.836,28.526,9.341,38.042,20.956c6.524,7.941,16.24,12.573,26.517,12.642
			h29.308V409.6z M435.2,332.8v93.867c0,4.713-3.82,8.533-8.533,8.533s-8.533-3.82-8.533-8.533v-59.733
			c0-4.713-3.82-8.533-8.533-8.533s-8.533,3.82-8.533,8.533V460.8c0,4.713-3.821,8.533-8.533,8.533c-4.713,0-8.533-3.82-8.533-8.533
			v-93.867c0-4.713-3.82-8.533-8.533-8.533s-8.533,3.82-8.533,8.533V486.4c0,4.713-3.82,8.533-8.533,8.533s-8.533-3.82-8.533-8.533
			V366.933c0-4.713-3.82-8.533-8.533-8.533s-8.533,3.82-8.533,8.533v76.8c0,4.713-3.82,8.533-8.533,8.533s-8.533-3.82-8.533-8.533
			v-128c0-4.713-3.82-8.533-8.533-8.533h-16.531c1.836-14.903,9.341-28.526,20.956-38.042c7.941-6.524,12.573-16.24,12.642-26.517
			v-29.308H409.6v25.475c-0.141,15.648,3.97,31.042,11.892,44.537C430.455,298.285,435.193,315.378,435.2,332.8z M486.4,162.133
			H366.933c-4.713,0-8.533,3.82-8.533,8.533s3.82,8.533,8.533,8.533h76.8c4.713,0,8.533,3.82,8.533,8.533s-3.82,8.533-8.533,8.533
			h-128c-4.713,0-8.533,3.82-8.533,8.533v16.531c-14.903-1.836-28.526-9.341-38.042-20.956c-6.524-7.941-16.24-12.573-26.517-12.642
			h-29.308V102.4h25.475c15.648,0.14,31.042-3.97,44.537-11.892c14.939-8.963,32.032-13.701,49.454-13.708h93.867
			c4.713,0,8.533,3.82,8.533,8.533s-3.82,8.533-8.533,8.533h-59.733c-4.713,0-8.533,3.82-8.533,8.533s3.82,8.533,8.533,8.533H460.8
			c4.713,0,8.533,3.82,8.533,8.533S465.513,128,460.8,128h-93.867c-4.713,0-8.533,3.82-8.533,8.533s3.82,8.533,8.533,8.533H486.4
			c4.713,0,8.533,3.821,8.533,8.533C494.933,158.313,491.113,162.133,486.4,162.133z"/>
	</g>
</g>
<g>
</g>
<g>
</g>
<g>
</g>
<g>
</g>
<g>
</g>
<g>
</g>
<g>
</g>
<g>
</g>
<g>
</g>
<g>
</g>
<g>
</g>
<g>
</g>
<g>
</g>
<g>
</g>
<g>
</g>
</svg>
