<svg id="Layer_5" enable-background="new 0 0 64 64" height="512" viewBox="0 0 64 64" width="512" xmlns="http://www.w3.org/2000/svg"><g><path d="m63 35.949c0-4.354-2.111-8.512-5.647-11.122-.721-.534-1.615-.827-2.516-.827-1.128 0-2.185.451-2.961 1.218-.145-.121-.277-.254-.427-.369-.555-.424-1.221-.676-1.905-.78l.441-4.849c.01-.116.015-.233.015-.35 0-2.134-1.736-3.87-3.87-3.87h-.26c-2.134 0-3.87 1.736-3.87 3.87 0 .117.005.234.016.351l.443 4.87c-.634.12-1.247.365-1.765.751-.179.134-.338.288-.51.429-.089-.092-.183-.178-.28-.261.057-.333.096-.67.096-1.01 0-1.27-.396-2.485-1.13-3.5.734-1.015 1.13-2.229 1.13-3.5 0-3.424-2.897-6.199-6.349-5.989-.642-1.84-2.139-3.227-3.979-3.762-1.218-1.519-3.054-2.362-5.021-2.238-.828-2.373-3.07-4.011-5.651-4.011-2.165 0-4.136 1.158-5.198 3.003-2.648.089-4.937 1.958-5.593 4.504-3.096 1.155-5.209 4.152-5.209 7.493 0 2.679 1.318 5.128 3.499 6.608-.329.751-.499 1.563-.499 2.392 0 1.8.8 3.473 2.173 4.606-.115.464-.173.931-.173 1.394 0 3.064 2.31 5.6 5.28 5.957l2.212 6.195c-1.133.835-2.098 1.88-2.841 3.08l-5.239-1.164c-.199-.046-.404-.068-.61-.068-1.545 0-2.802 1.257-2.802 2.802v.396c0 .28.054.546.131.802h-.131c-1.654 0-3 1.346-3 3s1.346 3 3 3h.131c-.077.256-.131.522-.131.802v.396c0 1.545 1.257 2.802 2.802 2.802.206 0 .411-.022.608-.067l5.241-1.165c1.941 3.134 5.4 5.232 9.349 5.232h.235c.556 0 1.119-.043 1.672-.128l34.291-5.275c2.782-.429 4.802-2.782 4.802-5.597 0-2.251-1.303-4.188-3.243-5.101 2.072-2.475 3.243-5.615 3.243-8.848zm-12.767-9.511c2.985 2.282 4.767 5.917 4.767 9.726v3.673c0 2.05-.511 4.057-1.474 5.848l-8.019-1.234c-.33-1.451-.507-2.933-.507-4.421v-4.06c0-1.008.101-2.015.254-3.013.245.021.489.043.746.043 2.851 0 5-1.29 5-3 0-.944-.653-1.782-1.784-2.332l.147-1.618c.312.063.612.189.87.388zm-4.363-9.438h.261c1.031 0 1.87.839 1.87 1.87 0 .057-.002.114-.008.17l-.908 9.987.763.245c.876.28 1.152.649 1.152.728 0 .249-1.064 1-3 1s-3-.751-3-1c0-.079.276-.448 1.152-.729l.763-.245-.908-9.986c-.005-.057-.007-.114-.007-.17 0-1.031.839-1.87 1.87-1.87zm-3.23 9.083.144 1.585c-1.131.55-1.784 1.388-1.784 2.332 0 1.102.899 2.023 2.296 2.543-.179 1.135-.296 2.281-.296 3.427v4.06c0 1.374.132 2.746.388 4.095l-5.895-.907c-.321-1.099-.493-2.232-.493-3.382v-3.673c0-3.803 1.828-7.437 4.89-9.719.223-.166.48-.288.75-.361zm-10.807 16.264c-.543-1.374-.833-2.813-.833-4.296v-2.103c0-3.722 1.808-7.278 4.835-9.514.38-.28.852-.434 1.328-.434.604 0 1.16.243 1.567.65-2.358 2.584-3.73 5.978-3.73 9.514v3.673c0 1.031.123 2.051.346 3.051zm.094-30.046.182 1.029 1.02-.227c.31-.069.595-.103.871-.103 2.206 0 4 1.794 4 4 0 1.051-.408 2.045-1.148 2.799l-.688.701.688.701c.74.754 1.148 1.748 1.148 2.799 0 .03-.006.06-.006.091-.271-.054-.547-.091-.831-.091-.901 0-1.795.293-2.516.826-1.82 1.343-3.253 3.1-4.225 5.079-.379-1.18-.777-2.31-1.187-3.383.925-4.886 4.356-7.714 4.391-7.743l-.626-.779-.625-.781c-.139.111-2.844 2.32-4.363 6.305-2.081-4.778-4.045-7.869-4.171-8.065l-1.683 1.082c.027.041 1.552 2.44 3.327 6.259-2.991-1.126-6.39-.815-6.585-.795l.199 1.99c1.504-.151 5.764-.078 7.754 1.953.701 1.723 1.392 3.612 2.002 5.636-3.04-1.559-6.667-1.584-6.855-1.584v2c.047 0 4.499.03 7.134 2.125-.082.602-.134 1.21-.134 1.824v2.103c0 1.351.208 2.672.594 3.952l-5.687-.875c-.3-.046-.603-.077-.907-.099-2.206 0-4-1.808-4-4.029 0-.466.093-.944.275-1.423l.292-.765-.693-.438c-1.173-.742-1.874-2.003-1.874-3.375 0-.787.231-1.55.668-2.208l.623-.936-1.002-.509c-2.029-1.032-3.289-3.08-3.289-5.347 0-2.661 1.788-5.031 4.349-5.764l.621-.178.093-.639c.285-1.949 1.978-3.419 3.937-3.419.037 0 .073.008.109.013.07.01.141.019.212.024l.717.058.282-.662c.631-1.478 2.075-2.433 3.68-2.433 1.938 0 3.589 1.388 3.927 3.301zm-17.222 22.699h-.705c-2.206 0-4-1.794-4-4 0-.467.093-.945.275-1.422l.293-.765-.693-.438c-1.174-.742-1.875-2.003-1.875-3.375 0-.787.231-1.55.668-2.208l.623-.936-1.002-.509c-2.029-1.032-3.289-3.08-3.289-5.347 0-2.661 1.788-5.031 4.348-5.764l.621-.178.093-.639c.286-1.949 1.979-3.419 3.938-3.419.038 0 .075.008.112.013.068.009.136.018.206.024l.72.06.283-.665c.63-1.477 2.074-2.432 3.679-2.432 1.938 0 3.589 1.388 3.927 3.301l.182 1.029 1.02-.227c.31-.069.595-.103.871-.103.46 0 .897.101 1.315.247-1.47.43-2.736 1.406-3.513 2.756-2.648.089-4.937 1.958-5.593 4.504-3.096 1.155-5.209 4.152-5.209 7.493 0 2.679 1.318 5.128 3.499 6.608-.329.751-.499 1.563-.499 2.392 0 1.8.8 3.473 2.173 4.607-.115.464-.173.93-.173 1.393 0 1.757.756 3.336 1.953 4.438-.594.172-1.165.395-1.713.66zm-8.705 13.198v-.396c0-.502.486-.889.977-.783l4.759 1.058c-.116.302-.22.609-.309.923h-4.625c-.442 0-.802-.36-.802-.802zm-3 3.802c0-.551.449-1 1-1h2.802 4.248c-.029.33-.05.662-.05 1s.021.67.051 1h-4.249-2.802c-.551 0-1-.449-1-1zm3.975 4.981c-.474.102-.975-.282-.975-.783v-.396c0-.442.36-.802.802-.802h4.624c.089.314.194.621.309.923zm54.025-4.981c0 1.821-1.306 3.343-3.105 3.62l-34.29 5.275c-.454.07-.915.105-1.37.105h-.235c-4.962 0-9-4.038-9-9s4.038-9 9-9h.235c.455 0 .916.035 1.369.104l34.29 5.275c1.8.278 3.106 1.8 3.106 3.621zm0-13.949c0 3.076-1.245 6.052-3.411 8.258l-1.987-.306c.913-1.918 1.398-4.021 1.398-6.167v-3.673c0-3.554-1.354-6.965-3.68-9.553.404-.381.94-.61 1.517-.61.477 0 .948.154 1.328.436 3.027 2.234 4.835 5.791 4.835 9.513z"/><path d="m21 47h2v10h-2z"/><path d="m29 47h2v10h-2z"/><path d="m37 47h2v10h-2z"/><path d="m45 49h2v6h-2z"/><path d="m53 50h2v4h-2z"/></g></svg>